<svg width="213" height="77" viewBox="0 0 213 77" fill="none" xmlns="http://www.w3.org/2000/svg">
<path d="M142.217 1.08032C151.682 -0.274078 157.183 0.00655753 166.512 0.060791C172.17 0.0936819 175.436 0.0758873 181.171 0.567627C184.592 0.860973 188.904 1.49622 192.327 2.05103C194.046 2.32956 195.554 2.59064 196.633 2.78149C197.172 2.87694 197.605 2.95467 197.904 3.00903C198.052 3.03615 198.168 3.05704 198.246 3.07153C198.285 3.07877 198.316 3.08435 198.336 3.08813C198.343 3.08949 198.35 3.09017 198.355 3.09106C198.359 3.09179 198.364 3.0931 198.369 3.09399C198.394 3.09814 198.429 3.1047 198.475 3.11255C198.566 3.12832 198.699 3.15187 198.867 3.18188C199.204 3.24198 199.683 3.32912 200.257 3.44067C201.402 3.66328 202.939 3.98383 204.486 4.37036C206.012 4.75208 207.629 5.21796 208.895 5.74536C209.516 6.00424 210.162 6.32173 210.685 6.71411C211.103 7.02807 212 7.80077 212 9.06079C212 10.0381 212.122 12.4025 212.188 14.8831C212.219 16.0789 212.236 17.2772 212.211 18.2522C212.199 18.7367 212.175 19.2002 212.133 19.5959C212.101 19.8902 212.033 20.4671 211.789 20.9553C211.38 21.7738 210.871 22.291 210.393 22.6887C209.826 23.1596 209.746 23.1643 209.373 23.5159C208.561 24.2822 207.674 24.7967 207.221 25.1018C206.742 25.4243 206.466 25.6673 206.221 26.0803C206 26.4538 205.899 26.7642 205.814 27.1663C205.764 27.3996 205.728 27.6247 205.668 27.9563C205.612 28.2687 205.543 28.6339 205.442 29.0422C204.971 30.9364 204.756 32.4424 204.586 33.9983C204.418 35.5367 204.282 37.2534 203.98 39.3469C203.503 42.6445 203.137 46.0785 202.75 49.1741C202.377 52.1632 201.973 54.9668 201.398 56.6926C200.88 58.2466 200.099 60.3323 199.113 62.3694C198.145 64.3716 196.903 66.4867 195.415 67.9749C192.564 70.8263 187.166 73.4671 181.893 74.5217C176.728 75.5547 169.102 76.2634 160.95 76.0598C155.042 75.9122 148.703 75.4066 143.248 74.552C140.522 74.1248 137.985 73.6061 135.819 72.9905C133.686 72.3844 131.774 71.647 130.391 70.7249C125.546 67.4948 123.366 64.2143 121.336 61.1702C120.161 59.4074 119.15 56.6378 118.196 53.7395C117.194 50.6996 116.237 47.4549 115.112 44.217C114.064 41.2042 113.273 37.6667 112.556 34.9456C112.185 33.5395 111.838 32.3561 111.481 31.4534C111.303 31.0049 111.141 30.6714 110.998 30.4368C110.848 30.1904 110.772 30.1384 110.801 30.1604C110.291 29.778 109.966 29.5327 109.732 29.3606C109.617 29.2763 109.539 29.2204 109.483 29.1819C109.463 29.1686 109.448 29.1589 109.437 29.1516C109.34 29.1198 109.117 29.0522 108.802 28.9348C108.516 28.8283 107.88 28.7187 107.136 28.6448C106.801 28.6115 106.494 28.5898 106.272 28.5764C106.161 28.5698 106.071 28.5655 106.012 28.5627L106.009 28.5618L106.007 28.5627C105.954 28.5654 105.875 28.5699 105.776 28.5764C105.575 28.5896 105.298 28.6109 104.992 28.6438C104.32 28.7161 103.721 28.8229 103.421 28.9348C103.106 29.0522 102.883 29.1198 102.786 29.1516C102.775 29.1589 102.76 29.1686 102.74 29.1819C102.684 29.2204 102.606 29.2763 102.491 29.3606C102.257 29.5327 101.932 29.778 101.422 30.1604C101.451 30.1384 101.375 30.1904 101.225 30.4368C101.082 30.6714 100.92 31.0049 100.742 31.4534C100.385 32.3561 100.038 33.5395 99.6672 34.9456C98.9502 37.6667 98.1588 41.2042 97.1115 44.217C95.986 47.4549 95.0289 50.6996 94.0276 53.7395C93.0729 56.6378 92.0621 59.4074 90.8869 61.1702C88.8575 64.2143 86.6773 67.4948 81.8322 70.7249C80.4491 71.6469 78.5372 72.3844 76.4045 72.9905C74.2384 73.6061 71.7015 74.1248 68.9748 74.552C63.5201 75.4066 57.1814 75.9122 51.2727 76.0598C43.1212 76.2634 35.4954 75.5547 30.3303 74.5217C25.0573 73.4671 19.6593 70.8263 16.8078 67.9749C15.3198 66.4867 14.0784 64.3716 13.1096 62.3694C12.1239 60.3323 11.3434 58.2466 10.8254 56.6926C10.2502 54.9668 9.84599 52.1632 9.47287 49.1741C9.08647 46.0785 8.71973 42.6445 8.24338 39.3469C7.94095 37.2534 7.80523 35.5367 7.63693 33.9983C7.46671 32.4424 7.25201 30.9364 6.78146 29.0422C6.68006 28.6339 6.61082 28.2687 6.5549 27.9563C6.49555 27.6247 6.45888 27.3996 6.40939 27.1663C6.32408 26.7642 6.22344 26.4538 6.00217 26.0803C5.75738 25.6673 5.48075 25.4243 5.00217 25.1018C4.54933 24.7967 3.66225 24.2822 2.84982 23.5159C2.47705 23.1643 2.3966 23.1596 1.83029 22.6887C1.35204 22.291 0.843117 21.7738 0.433807 20.9553C0.189803 20.4671 0.121653 19.8902 0.0900574 19.5959C0.0475925 19.2002 0.0242546 18.7367 0.0119324 18.2522C-0.0128485 17.2772 0.0039022 16.0789 0.0353699 14.8831C0.10065 12.4025 0.222846 10.0381 0.22287 9.06079C0.222979 7.80077 1.11969 7.02807 1.5383 6.71411C2.06155 6.32174 2.70704 6.00424 3.32834 5.74536C4.59415 5.21796 6.21067 4.75208 7.73752 4.37036C9.28366 3.98383 10.8212 3.66328 11.966 3.44067C12.5398 3.32912 13.0192 3.24198 13.3557 3.18188C13.5238 3.15187 13.6567 3.12832 13.7483 3.11255C13.7938 3.1047 13.8293 3.09814 13.8537 3.09399C13.859 3.0931 13.8641 3.09179 13.8684 3.09106C13.8732 3.09017 13.8796 3.08949 13.8869 3.08813C13.9073 3.08435 13.9376 3.07877 13.9768 3.07153C14.0553 3.05704 14.1708 3.03615 14.3195 3.00903C14.6177 2.95467 15.0507 2.87694 15.5901 2.78149C16.6686 2.59064 18.1771 2.32956 19.8957 2.05103C23.319 1.49622 27.6307 0.860973 31.052 0.567627C36.7875 0.0758873 40.0527 0.0936819 45.7112 0.060791C55.04 0.00655753 60.5413 -0.274077 70.0061 1.08032C72.9479 1.50132 76.6353 2.26564 79.5539 2.91528C81.0199 3.24159 82.3055 3.54203 83.2248 3.76099C83.6844 3.87045 84.0536 3.95974 84.3078 4.02173C84.4348 4.05269 84.5337 4.07747 84.6008 4.09399C84.6338 4.10213 84.6595 4.10824 84.677 4.11255C84.6855 4.11467 84.6929 4.1163 84.6975 4.11743L84.7356 4.1272C84.7682 4.13503 84.8161 4.14573 84.8762 4.1604C84.997 4.1899 85.1707 4.23375 85.386 4.28833C85.8166 4.39752 86.4168 4.55408 87.0959 4.74438C88.4307 5.11841 90.1601 5.64663 91.507 6.22095C92.7478 6.75 94.2084 7.55046 95.3147 8.18774C95.8772 8.51184 96.3674 8.8046 96.717 9.01685C96.8918 9.12292 97.0327 9.20952 97.1301 9.26978C97.1787 9.29981 97.2171 9.32371 97.2434 9.34009C97.2564 9.34818 97.2665 9.35515 97.2737 9.35962C97.2771 9.36175 97.2804 9.36328 97.2824 9.3645L97.2844 9.36548L97.2854 9.36646H97.2863L97.4768 9.48657L97.634 9.6438H97.635L97.636 9.64478V9.64575C97.6392 9.64894 97.6463 9.65543 97.6555 9.66431C97.6745 9.68262 97.7051 9.71196 97.7434 9.74731C97.8222 9.82009 97.926 9.91253 98.0344 9.99927L98.0354 10.0002C98.2423 9.9613 98.4837 9.91147 98.7258 9.85767C98.9927 9.79836 99.2475 9.73878 99.4358 9.6936C99.5292 9.67118 99.6058 9.65281 99.6584 9.63989C99.6847 9.63345 99.7055 9.62858 99.719 9.62524C99.7254 9.62364 99.7305 9.62213 99.7336 9.62134C99.7348 9.62103 99.7359 9.62055 99.7365 9.62036H99.7375L99.8147 9.60083L99.8938 9.58813L102.894 9.08813L103.057 9.06079H109.166L109.329 9.08813L112.329 9.58813L112.408 9.60083L112.486 9.62036H112.487C112.487 9.62055 112.488 9.62103 112.489 9.62134C112.493 9.62213 112.498 9.62364 112.504 9.62524C112.518 9.62858 112.538 9.63345 112.565 9.63989C112.617 9.65281 112.694 9.67118 112.787 9.6936C112.976 9.73878 113.23 9.79836 113.497 9.85767C113.739 9.91147 113.981 9.9613 114.188 10.0002L114.189 9.99927C114.297 9.91253 114.401 9.82009 114.48 9.74731C114.518 9.71196 114.549 9.68262 114.568 9.66431C114.577 9.65543 114.584 9.64894 114.587 9.64575V9.64478L114.588 9.6438H114.589L114.746 9.48657L114.937 9.36646H114.938L114.939 9.36548L114.941 9.3645C114.943 9.36328 114.946 9.36175 114.949 9.35962C114.957 9.35515 114.967 9.34818 114.98 9.34009C115.006 9.32371 115.044 9.29981 115.093 9.26978C115.19 9.20952 115.331 9.12293 115.506 9.01685C115.856 8.8046 116.346 8.51184 116.908 8.18774C118.015 7.55046 119.475 6.75 120.716 6.22095C122.063 5.64663 123.792 5.11841 125.127 4.74438C125.806 4.55407 126.407 4.39752 126.837 4.28833C127.052 4.23375 127.226 4.1899 127.347 4.1604C127.407 4.14573 127.455 4.13503 127.488 4.1272L127.526 4.11743C127.53 4.1163 127.538 4.11467 127.546 4.11255C127.564 4.10824 127.589 4.10213 127.622 4.09399C127.689 4.07747 127.788 4.05269 127.915 4.02173C128.169 3.95974 128.539 3.87045 128.998 3.76099C129.918 3.54203 131.203 3.24159 132.669 2.91528C135.588 2.26564 139.275 1.50132 142.217 1.08032ZM166.489 4.06079C157.058 4.00597 151.891 3.73715 142.784 5.04028C140.002 5.43841 136.438 6.17405 133.538 6.81958C132.096 7.14069 130.83 7.43709 129.925 7.65259C129.473 7.76028 129.111 7.84797 128.863 7.90845C128.739 7.93855 128.644 7.96197 128.579 7.97778C128.547 7.98565 128.522 7.99138 128.506 7.99536C128.498 7.99728 128.492 7.99926 128.488 8.00024C128.487 8.00062 128.485 8.001 128.485 8.00122H128.483L128.472 8.00415L128.46 8.00708H128.459C128.458 8.00739 128.455 8.00829 128.452 8.00903C128.446 8.01059 128.435 8.01257 128.421 8.01587C128.393 8.02255 128.351 8.0337 128.296 8.04712C128.186 8.07406 128.023 8.11391 127.821 8.16528C127.414 8.2683 126.847 8.41654 126.206 8.59595C124.902 8.96142 123.381 9.43337 122.285 9.90063C121.276 10.3311 119.986 11.0309 118.905 11.6536C118.375 11.9592 117.911 12.2365 117.581 12.4368C117.438 12.5239 117.319 12.5961 117.233 12.6497C117.22 12.6614 117.207 12.6742 117.194 12.6868C117.069 12.8014 116.891 12.9593 116.688 13.1223C116.492 13.2791 116.229 13.4749 115.939 13.6409C115.722 13.7649 115.178 14.0608 114.5 14.0608C114.168 14.0607 113.778 13.9935 113.541 13.9504C113.247 13.897 112.922 13.8279 112.629 13.7629C112.334 13.6973 112.057 13.6318 111.855 13.5833C111.753 13.5589 111.669 13.5391 111.611 13.5247C111.605 13.5233 111.6 13.521 111.595 13.5198L108.836 13.0608H103.387L100.628 13.5198C100.623 13.521 100.618 13.5233 100.613 13.5247C100.554 13.5391 100.47 13.5589 100.368 13.5833C100.166 13.6318 99.8892 13.6973 99.594 13.7629C99.3014 13.8279 98.976 13.897 98.6819 13.9504C98.4448 13.9935 98.0548 14.0607 97.7229 14.0608C97.0454 14.0608 96.5014 13.7649 96.2844 13.6409C95.994 13.4749 95.7313 13.2791 95.5354 13.1223C95.3316 12.9593 95.1536 12.8014 95.0295 12.6868C95.0159 12.6742 95.003 12.6614 94.9904 12.6497C94.9036 12.5961 94.7853 12.5239 94.6418 12.4368C94.3119 12.2365 93.8482 11.9592 93.3176 11.6536C92.2367 11.0309 90.9473 10.3311 89.9377 9.90063C88.8418 9.43337 87.321 8.96142 86.0168 8.59595C85.3766 8.41654 84.8088 8.2683 84.4026 8.16528C84.1999 8.11391 84.0374 8.07406 83.927 8.04712C83.872 8.0337 83.8298 8.02255 83.802 8.01587C83.7882 8.01257 83.7773 8.01059 83.7707 8.00903C83.7677 8.00829 83.7652 8.00739 83.7639 8.00708H83.7629L83.7512 8.00415L83.7404 8.00122H83.7385C83.7376 8.001 83.7361 8.00062 83.7346 8.00024C83.7307 7.99926 83.7247 7.99727 83.717 7.99536C83.7009 7.99138 83.6757 7.98565 83.6438 7.97778C83.5796 7.96197 83.484 7.93855 83.3606 7.90845C83.1125 7.84797 82.7502 7.76028 82.2981 7.65259C81.3933 7.43709 80.1274 7.14069 78.6848 6.81958C75.7846 6.17405 72.2209 5.43841 69.4387 5.04028C60.3319 3.73715 55.1654 4.00597 45.7336 4.06079C40.0612 4.09376 36.9479 4.07679 31.3938 4.55298C28.1295 4.83286 23.9404 5.44743 20.5354 5.99927C18.84 6.27403 17.3515 6.53167 16.2873 6.71997C15.7554 6.81409 15.3293 6.89134 15.0373 6.94458C14.8917 6.97113 14.779 6.99115 14.7033 7.00513C14.6655 7.01211 14.6364 7.0182 14.6174 7.02173C14.608 7.02347 14.6005 7.02478 14.5959 7.02563C14.5938 7.02602 14.592 7.02642 14.591 7.02661H14.5901L14.5705 7.03052L14.551 7.03345H14.55C14.549 7.03364 14.5472 7.03407 14.5451 7.03442C14.5402 7.03525 14.532 7.03658 14.5217 7.03833C14.5008 7.04188 14.4687 7.04774 14.427 7.05493C14.3429 7.06941 14.2181 7.09094 14.0588 7.11938C13.7392 7.17646 13.2796 7.26031 12.7287 7.36743C11.6237 7.58231 10.1607 7.88785 8.70724 8.25122C7.23441 8.61944 5.85043 9.02774 4.86642 9.43774C4.58318 9.55577 4.36695 9.66075 4.20822 9.74731C4.1758 11.0083 4.0835 13.1226 4.03439 14.9885C4.00338 16.1673 3.98888 17.2821 4.01096 18.1506C4.02206 18.5873 4.04177 18.9285 4.0676 19.1692C4.07323 19.2217 4.08051 19.2636 4.08517 19.2961C4.15687 19.406 4.24329 19.4941 4.38693 19.6135C4.52302 19.7267 4.63841 19.8099 4.87033 19.9905C5.07748 20.1518 5.3278 20.3538 5.59494 20.6057C6.09172 21.0743 6.49653 21.2858 7.23654 21.7844C7.95075 22.2657 8.7698 22.906 9.4426 24.0413C9.94566 24.8902 10.1747 25.6404 10.3225 26.3372C10.3895 26.6532 10.4454 26.9886 10.4924 27.2512C10.5428 27.533 10.5935 27.7974 10.6633 28.0784C11.1913 30.2037 11.4305 31.8989 11.6125 33.5627C11.7965 35.2443 11.9126 36.7689 12.2024 38.7747C12.6853 42.118 13.0679 45.6842 13.4416 48.678C13.8286 51.7777 14.1947 54.1537 14.6194 55.428C15.1013 56.8738 15.821 58.7895 16.7102 60.6272C17.6162 62.4996 18.6253 64.135 19.6369 65.1467C21.7855 67.2951 26.388 69.6535 31.1145 70.5989C35.9492 71.5658 43.2746 72.258 51.1721 72.0608C56.9442 71.9166 63.1059 71.4223 68.3557 70.5999C70.9813 70.1885 73.349 69.7004 75.3108 69.1428C77.3058 68.5758 78.7468 67.9745 79.6135 67.3967C83.7682 64.6269 85.5883 61.9073 87.5588 58.9514C88.3836 57.7141 89.2463 55.471 90.2287 52.4885C91.1645 49.6477 92.2075 46.1418 93.3332 42.9036C94.3133 40.0842 95.0229 36.8716 95.799 33.926C96.1751 32.499 96.5719 31.1196 97.0227 29.9807C97.4355 28.9377 98.0379 27.6988 99.0227 26.9602C99.9286 26.2807 100.446 25.879 100.831 25.6594C101.117 25.4966 101.35 25.4138 101.539 25.3518C101.698 25.2995 101.806 25.268 102.024 25.1868C102.836 24.8839 103.877 24.7402 104.565 24.6663C104.939 24.626 105.273 24.6 105.514 24.5842C105.634 24.5763 105.733 24.5712 105.803 24.5676C105.838 24.5658 105.866 24.5646 105.886 24.5637C105.896 24.5633 105.904 24.563 105.91 24.5627C105.913 24.5626 105.915 24.5619 105.917 24.5618H105.921C105.921 24.5618 105.922 24.5626 106 26.5608C106.072 24.5623 106.072 24.5618 106.072 24.5618H106.084C106.09 24.562 106.099 24.5633 106.11 24.5637C106.131 24.5646 106.161 24.5659 106.198 24.5676C106.274 24.5711 106.381 24.5764 106.511 24.5842C106.771 24.5998 107.131 24.6245 107.531 24.6643C108.259 24.7367 109.372 24.8785 110.199 25.1868C110.417 25.268 110.525 25.2995 110.684 25.3518C110.873 25.4138 111.106 25.4966 111.392 25.6594C111.777 25.879 112.294 26.2807 113.2 26.9602C114.185 27.6988 114.788 28.9377 115.2 29.9807C115.651 31.1196 116.048 32.499 116.424 33.926C117.2 36.8716 117.91 40.0842 118.89 42.9036C120.016 46.1418 121.059 49.6477 121.994 52.4885C122.977 55.471 123.839 57.7141 124.664 58.9514C126.635 61.9073 128.455 64.6269 132.61 67.3967C133.476 67.9745 134.917 68.5758 136.912 69.1428C138.874 69.7004 141.242 70.1885 143.867 70.5999C149.117 71.4223 155.279 71.9166 161.051 72.0608C168.948 72.258 176.274 71.5658 181.109 70.5989C185.835 69.6535 190.438 67.2951 192.586 65.1467C193.598 64.135 194.607 62.4996 195.513 60.6272C196.402 58.7895 197.122 56.8738 197.604 55.428C198.028 54.1537 198.395 51.7777 198.781 48.678C199.155 45.6842 199.538 42.118 200.021 38.7747C200.31 36.7689 200.427 35.2443 200.611 33.5627C200.793 31.8989 201.032 30.2037 201.56 28.0784C201.63 27.7974 201.68 27.533 201.731 27.2512C201.778 26.9886 201.834 26.6532 201.901 26.3372C202.048 25.6404 202.277 24.8902 202.78 24.0413C203.453 22.906 204.272 22.2657 204.987 21.7844C205.727 21.2858 206.131 21.0743 206.628 20.6057C206.895 20.3538 207.146 20.1518 207.353 19.9905C207.585 19.8099 207.7 19.7267 207.836 19.6135C207.98 19.4941 208.066 19.406 208.138 19.2961C208.143 19.2636 208.15 19.2217 208.155 19.1692C208.181 18.9285 208.201 18.5873 208.212 18.1506C208.234 17.2821 208.22 16.1673 208.189 14.9885C208.14 13.1226 208.047 11.0083 208.015 9.74731C207.856 9.66075 207.64 9.55577 207.357 9.43774C206.373 9.02774 204.989 8.61944 203.516 8.25122C202.062 7.88785 200.599 7.58231 199.494 7.36743C198.943 7.26031 198.484 7.17646 198.164 7.11938C198.005 7.09093 197.88 7.06941 197.796 7.05493C197.754 7.04774 197.722 7.04188 197.701 7.03833C197.691 7.03658 197.683 7.03525 197.678 7.03442C197.676 7.03407 197.674 7.03364 197.673 7.03345H197.672L197.653 7.03052L197.633 7.02661H197.632C197.631 7.02642 197.629 7.02602 197.627 7.02563C197.623 7.02478 197.615 7.02347 197.606 7.02173C197.587 7.0182 197.558 7.01211 197.52 7.00513C197.444 6.99115 197.331 6.97113 197.186 6.94458C196.894 6.89134 196.468 6.81409 195.936 6.71997C194.872 6.53167 193.383 6.27403 191.688 5.99927C188.283 5.44743 184.094 4.83286 180.829 4.55298C175.275 4.07679 172.162 4.09376 166.489 4.06079Z" fill="black"/>
</svg>
