<svg width="75" height="75" viewBox="0 0 75 75" fill="none" xmlns="http://www.w3.org/2000/svg">
<path d="M17.5446 44.617L15.8337 56.836C15.7438 57.4571 15.9548 58.086 16.404 58.5274C16.7829 58.9063 17.2946 59.1172 17.8142 59.1172C17.904 59.1172 17.9939 59.1172 18.0954 59.0977L30.3144 57.3985L47.2634 74.3475C47.6423 74.7264 48.1541 74.9373 48.6736 74.9373C48.8221 74.9373 48.9744 74.9178 49.1229 74.8865C49.7947 74.7264 50.3417 74.2381 50.5643 73.5857L74.8343 2.63675C74.8343 2.63675 74.8538 2.55862 74.8655 2.51566C74.885 2.45706 74.8968 2.39457 74.9046 2.33597C74.9163 2.27737 74.9241 2.21488 74.9241 2.15628C74.9241 2.09768 74.9358 2.0469 74.9358 1.9844C74.9358 1.9258 74.9358 1.86331 74.9241 1.80471C74.9241 1.75393 74.9241 1.69533 74.9046 1.64455C74.8928 1.58595 74.8733 1.52346 74.8655 1.46486C74.8538 1.41408 74.8343 1.3633 74.8147 1.3047C74.7952 1.2461 74.7639 1.18361 74.7366 1.12501C74.7171 1.09376 74.7053 1.05469 74.6975 1.02345C74.6975 1.01173 74.678 1.00392 74.678 0.984385C74.6468 0.925791 74.6077 0.875005 74.5686 0.824225C74.5374 0.785162 74.51 0.734381 74.4788 0.695315C74.4397 0.656253 74.4007 0.61719 74.3577 0.574225C74.3186 0.535162 74.2796 0.484381 74.2288 0.445315C74.1897 0.414065 74.1507 0.386723 74.1077 0.355473C74.0569 0.31641 73.9983 0.277347 73.9358 0.246093C73.9241 0.246093 73.9163 0.226562 73.8968 0.226562C73.8655 0.207031 73.8264 0.195312 73.7952 0.1875C73.7366 0.15625 73.6741 0.128906 73.6155 0.109375C73.5647 0.089843 73.5139 0.0781248 73.4553 0.0585928C73.3968 0.0390618 73.3343 0.0273423 73.2757 0.0195303C73.2171 0.0195303 73.1663 0.007812 73.1038 0H72.9241C72.8655 0 72.8147 -2.49594e-07 72.7522 0.0117188C72.6936 0.0117188 72.6311 0.023437 72.5725 0.03125C72.5139 0.042969 72.4631 0.0624995 72.4006 0.0703115C72.3616 0.0820305 72.3225 0.0898425 72.2717 0.101562L1.35373 24.3556C0.705287 24.5743 0.213126 25.1251 0.0529263 25.797C-0.107274 26.4688 0.103707 27.1759 0.584176 27.6681L17.5332 44.6171L17.5446 44.617ZM21.5329 44.9764L61.0129 13.9174L29.9539 53.3974L20.1727 54.7685L21.5438 44.9873L21.5329 44.9764ZM47.8259 69.2464L33.6969 55.1174L67.2479 12.4694L47.8259 69.2504V69.2464ZM62.4629 7.68736L19.8219 41.2384L5.69287 27.1094L62.4739 7.68736H62.4629Z" fill="black"/>
</svg>
